<svg width="80" height="81" viewBox="0 0 80 81" fill="none" xmlns="http://www.w3.org/2000/svg">
<rect x="0.5" y="1" width="79" height="79" rx="11.5" fill="#262529"/>
<rect x="0.5" y="1" width="79" height="79" rx="11.5" stroke="#28272B"/>
<path d="M56.666 30.4999V34.5333C56.666 37.1666 54.9993 38.8333 52.366 38.8333H46.666V27.1833C46.666 25.3333 48.1827 23.8333 50.0327 23.8333C51.8494 23.8499 53.516 24.5833 54.716 25.7833C55.916 26.9999 56.666 28.6666 56.666 30.4999Z" stroke="#E39AB2" stroke-width="2" stroke-miterlimit="10" stroke-linecap="round" stroke-linejoin="round"/>
<path d="M23.334 32.1666V55.4999C23.334 56.8833 24.9006 57.6666 26.0006 56.8333L28.8506 54.6999C29.5173 54.1999 30.4507 54.2666 31.0507 54.8666L33.8173 57.6499C34.4673 58.2999 35.534 58.2999 36.184 57.6499L38.984 54.8499C39.5673 54.2666 40.5007 54.1999 41.1507 54.6999L44.0007 56.8333C45.1007 57.6499 46.6673 56.8666 46.6673 55.4999V27.1666C46.6673 25.3333 48.1673 23.8333 50.0007 23.8333H31.6673H30.0007C25.0007 23.8333 23.334 26.8166 23.334 30.4999V32.1666Z" stroke="#E39AB2" stroke-width="2" stroke-miterlimit="10" stroke-linecap="round" stroke-linejoin="round"/>
<path d="M30 35.5H40" stroke="#E39AB2" stroke-width="2" stroke-linecap="round" stroke-linejoin="round"/>
<path d="M31.25 42.1667H38.75" stroke="#E39AB2" stroke-width="2" stroke-linecap="round" stroke-linejoin="round"/>
</svg>
