<svg width="16" height="17" viewBox="0 0 16 17" fill="none" xmlns="http://www.w3.org/2000/svg">
<path d="M5.33398 8.10005C5.33398 8.61338 5.73398 9.03338 6.22065 9.03338H7.22065C7.64732 9.03338 7.99398 8.66672 7.99398 8.22005C7.99398 7.73338 7.78065 7.56005 7.46732 7.44672L5.86732 6.88672C5.54732 6.77338 5.33398 6.60005 5.33398 6.11338C5.33398 5.66672 5.68065 5.30005 6.10732 5.30005H7.10732C7.60065 5.30672 8.00065 5.72005 8.00065 6.23338" stroke="#D4D2DE" stroke-width="1.5" stroke-linecap="round" stroke-linejoin="round"/>
<path d="M6.66602 9.06665V9.55998" stroke="#D4D2DE" stroke-width="1.5" stroke-linecap="round" stroke-linejoin="round"/>
<path d="M6.66602 4.77344V5.29344" stroke="#D4D2DE" stroke-width="1.5" stroke-linecap="round" stroke-linejoin="round"/>
<path d="M6.66065 12.4866C9.60249 12.4866 11.9873 10.1018 11.9873 7.15992C11.9873 4.21808 9.60249 1.83325 6.66065 1.83325C3.71881 1.83325 1.33398 4.21808 1.33398 7.15992C1.33398 10.1018 3.71881 12.4866 6.66065 12.4866Z" stroke="#D4D2DE" stroke-width="1.5" stroke-linecap="round" stroke-linejoin="round"/>
<path d="M8.6543 13.7534C9.2543 14.6001 10.2343 15.1534 11.3543 15.1534C13.1743 15.1534 14.6543 13.6734 14.6543 11.8534C14.6543 10.7467 14.1076 9.76675 13.2743 9.16675" stroke="#D4D2DE" stroke-width="1.5" stroke-linecap="round" stroke-linejoin="round"/>
</svg>
